<mxfile host="app.diagrams.net" modified="2023-09-27T09:44:30.166Z" agent="Mozilla/5.0 (X11; Linux x86_64; rv:109.0) Gecko/20100101 Firefox/118.0" etag="e-096ZCTaCaQSWZPJ12Y" version="21.8.2" type="github">
  <diagram name="Page-1" id="atpHYdcX41WkCeb_qx9v">
    <mxGraphModel dx="1434" dy="720" grid="1" gridSize="10" guides="1" tooltips="1" connect="1" arrows="1" fold="1" page="1" pageScale="1" pageWidth="827" pageHeight="1169" math="0" shadow="0">
      <root>
        <mxCell id="0" />
        <mxCell id="1" parent="0" />
        <mxCell id="tOEbGuFUbsUMXaIYAXdz-1" value="Kunde" style="shape=umlActor;verticalLabelPosition=bottom;verticalAlign=top;html=1;outlineConnect=0;" vertex="1" parent="1">
          <mxGeometry x="90" y="170" width="30" height="60" as="geometry" />
        </mxCell>
        <mxCell id="tOEbGuFUbsUMXaIYAXdz-2" value="Skiverleih" style="swimlane;whiteSpace=wrap;html=1;" vertex="1" parent="1">
          <mxGeometry x="160" y="40" width="480" height="460" as="geometry">
            <mxRectangle x="200" y="100" width="100" height="30" as="alternateBounds" />
          </mxGeometry>
        </mxCell>
        <mxCell id="tOEbGuFUbsUMXaIYAXdz-6" value="Ausrüstung ausleihen" style="ellipse;whiteSpace=wrap;html=1;" vertex="1" parent="tOEbGuFUbsUMXaIYAXdz-2">
          <mxGeometry x="40" y="100" width="120" height="80" as="geometry" />
        </mxCell>
        <mxCell id="tOEbGuFUbsUMXaIYAXdz-12" value="Lager prüfen" style="ellipse;whiteSpace=wrap;html=1;" vertex="1" parent="tOEbGuFUbsUMXaIYAXdz-2">
          <mxGeometry x="300" y="40" width="120" height="80" as="geometry" />
        </mxCell>
        <mxCell id="tOEbGuFUbsUMXaIYAXdz-13" value="" style="endArrow=classic;html=1;rounded=0;exitX=1;exitY=0;exitDx=0;exitDy=0;" edge="1" parent="tOEbGuFUbsUMXaIYAXdz-2" source="tOEbGuFUbsUMXaIYAXdz-6" target="tOEbGuFUbsUMXaIYAXdz-12">
          <mxGeometry relative="1" as="geometry">
            <mxPoint x="210" y="240" as="sourcePoint" />
            <mxPoint x="310" y="240" as="targetPoint" />
          </mxGeometry>
        </mxCell>
        <mxCell id="tOEbGuFUbsUMXaIYAXdz-14" value="&amp;lt;&amp;lt;include&amp;gt;&amp;gt;" style="edgeLabel;resizable=0;html=1;align=center;verticalAlign=middle;" connectable="0" vertex="1" parent="tOEbGuFUbsUMXaIYAXdz-13">
          <mxGeometry relative="1" as="geometry" />
        </mxCell>
        <mxCell id="tOEbGuFUbsUMXaIYAXdz-15" value="Pfand eintauschen" style="ellipse;whiteSpace=wrap;html=1;" vertex="1" parent="tOEbGuFUbsUMXaIYAXdz-2">
          <mxGeometry x="170" y="250" width="120" height="80" as="geometry" />
        </mxCell>
        <mxCell id="tOEbGuFUbsUMXaIYAXdz-16" value="Versicherung abschliessen" style="ellipse;whiteSpace=wrap;html=1;" vertex="1" parent="tOEbGuFUbsUMXaIYAXdz-2">
          <mxGeometry x="240" y="160" width="120" height="80" as="geometry" />
        </mxCell>
        <mxCell id="tOEbGuFUbsUMXaIYAXdz-17" value="" style="endArrow=classic;html=1;rounded=0;exitX=0.708;exitY=1.013;exitDx=0;exitDy=0;exitPerimeter=0;" edge="1" parent="tOEbGuFUbsUMXaIYAXdz-2" source="tOEbGuFUbsUMXaIYAXdz-6" target="tOEbGuFUbsUMXaIYAXdz-15">
          <mxGeometry relative="1" as="geometry">
            <mxPoint x="210" y="240" as="sourcePoint" />
            <mxPoint x="310" y="240" as="targetPoint" />
          </mxGeometry>
        </mxCell>
        <mxCell id="tOEbGuFUbsUMXaIYAXdz-19" value="&amp;lt;&amp;lt;include&amp;gt;&amp;gt;" style="edgeLabel;html=1;align=center;verticalAlign=middle;resizable=0;points=[];" vertex="1" connectable="0" parent="tOEbGuFUbsUMXaIYAXdz-17">
          <mxGeometry x="0.028" y="1" relative="1" as="geometry">
            <mxPoint as="offset" />
          </mxGeometry>
        </mxCell>
        <mxCell id="tOEbGuFUbsUMXaIYAXdz-22" value="&amp;lt;&amp;lt;extend&amp;gt;&amp;gt;" style="endArrow=classic;html=1;rounded=0;exitX=0.008;exitY=0.413;exitDx=0;exitDy=0;exitPerimeter=0;" edge="1" parent="tOEbGuFUbsUMXaIYAXdz-2" source="tOEbGuFUbsUMXaIYAXdz-16" target="tOEbGuFUbsUMXaIYAXdz-6">
          <mxGeometry relative="1" as="geometry">
            <mxPoint x="210" y="240" as="sourcePoint" />
            <mxPoint x="310" y="240" as="targetPoint" />
          </mxGeometry>
        </mxCell>
        <mxCell id="tOEbGuFUbsUMXaIYAXdz-24" value="Ausrüstung zurückgeben" style="ellipse;whiteSpace=wrap;html=1;" vertex="1" parent="tOEbGuFUbsUMXaIYAXdz-2">
          <mxGeometry x="40" y="350" width="120" height="80" as="geometry" />
        </mxCell>
        <mxCell id="tOEbGuFUbsUMXaIYAXdz-26" value="&amp;lt;&amp;lt;include&amp;gt;&amp;gt;" style="endArrow=classic;html=1;rounded=0;exitX=1;exitY=0;exitDx=0;exitDy=0;entryX=0;entryY=1;entryDx=0;entryDy=0;" edge="1" parent="tOEbGuFUbsUMXaIYAXdz-2" source="tOEbGuFUbsUMXaIYAXdz-24" target="tOEbGuFUbsUMXaIYAXdz-15">
          <mxGeometry relative="1" as="geometry">
            <mxPoint x="210" y="240" as="sourcePoint" />
            <mxPoint x="310" y="240" as="targetPoint" />
          </mxGeometry>
        </mxCell>
        <mxCell id="tOEbGuFUbsUMXaIYAXdz-3" value="Verkäufer" style="shape=umlActor;verticalLabelPosition=bottom;verticalAlign=top;html=1;outlineConnect=0;" vertex="1" parent="1">
          <mxGeometry x="680" y="170" width="30" height="60" as="geometry" />
        </mxCell>
        <mxCell id="tOEbGuFUbsUMXaIYAXdz-5" value="" style="endArrow=none;html=1;rounded=0;entryX=0;entryY=0.5;entryDx=0;entryDy=0;exitX=1;exitY=0.3333333333333333;exitDx=0;exitDy=0;exitPerimeter=0;" edge="1" parent="1" source="tOEbGuFUbsUMXaIYAXdz-1" target="tOEbGuFUbsUMXaIYAXdz-6">
          <mxGeometry width="50" height="50" relative="1" as="geometry">
            <mxPoint x="130" y="210" as="sourcePoint" />
            <mxPoint x="230" y="160" as="targetPoint" />
          </mxGeometry>
        </mxCell>
        <mxCell id="tOEbGuFUbsUMXaIYAXdz-11" value="" style="endArrow=none;html=1;rounded=0;entryX=0;entryY=0.3333333333333333;entryDx=0;entryDy=0;entryPerimeter=0;exitX=1;exitY=0.5;exitDx=0;exitDy=0;" edge="1" parent="1" source="tOEbGuFUbsUMXaIYAXdz-6" target="tOEbGuFUbsUMXaIYAXdz-3">
          <mxGeometry width="50" height="50" relative="1" as="geometry">
            <mxPoint x="470" y="200" as="sourcePoint" />
            <mxPoint x="520" y="150" as="targetPoint" />
          </mxGeometry>
        </mxCell>
        <mxCell id="tOEbGuFUbsUMXaIYAXdz-28" value="" style="endArrow=none;html=1;rounded=0;exitX=1;exitY=1;exitDx=0;exitDy=0;exitPerimeter=0;" edge="1" parent="1" source="tOEbGuFUbsUMXaIYAXdz-1" target="tOEbGuFUbsUMXaIYAXdz-24">
          <mxGeometry width="50" height="50" relative="1" as="geometry">
            <mxPoint x="400" y="360" as="sourcePoint" />
            <mxPoint x="450" y="310" as="targetPoint" />
            <Array as="points">
              <mxPoint x="140" y="420" />
            </Array>
          </mxGeometry>
        </mxCell>
        <mxCell id="tOEbGuFUbsUMXaIYAXdz-29" value="" style="endArrow=none;html=1;rounded=0;exitX=1;exitY=0.5;exitDx=0;exitDy=0;" edge="1" parent="1" source="tOEbGuFUbsUMXaIYAXdz-24" target="tOEbGuFUbsUMXaIYAXdz-3">
          <mxGeometry width="50" height="50" relative="1" as="geometry">
            <mxPoint x="400" y="360" as="sourcePoint" />
            <mxPoint x="450" y="310" as="targetPoint" />
            <Array as="points">
              <mxPoint x="660" y="430" />
            </Array>
          </mxGeometry>
        </mxCell>
      </root>
    </mxGraphModel>
  </diagram>
</mxfile>
